<svg xmlns="http://www.w3.org/2000/svg" width="475.08" height="475.08">
  <path d="M436.24 146.75c5.14-15.42 7.72-31.4 7.72-47.96 0-22.1-4.86-42.9-14.57-62.3-20.4 0-38.4 3.7-54 11.1-15.6 7.4-33.4 19-53.4 34.6-25.2-6.1-51.8-9.2-80-9.2-30.9 0-60.3 3.3-88.2 9.9-20.4-16-38.4-27.74-54-35.26-15.6-7.57-33.7-11.3-54.3-11.3C35.9 55.8 31 76.6 31 98.64c0 16.75 2.6 32.9 7.7 48.5C12.93 177.6 0 215.27 0 260.37c0 39.6 5.9 71.1 17.7 94.5 6.28 12.38 14.47 23.3 24.55 32.84 10.1 9.5 21.6 17.2 34.55 23.1 12.95 5.9 25.98 10.8 39.12 14.7 13.13 3.9 27.64 6.7 43.54 8.5 15.9 1.83 29.93 3 42.1 3.6 12.2.55 25.7.84 40.55.84 17.6 0 33.4-.43 47.7-1.28 14.3-.87 30.6-2.96 49-6.3 18.4-3.35 34.6-7.87 48.6-13.6 14-5.7 27.4-13.9 40.3-24.53 12.9-10.65 22.9-23.3 30.1-37.96 11.6-23.6 17.4-55.13 17.4-94.53 0-45.3-12.9-83.2-38.8-113.7zM402 354.45c-6.1 12.48-13.8 22.27-23.13 29.4-9.33 7.15-20.94 12.86-34.83 17.15-13.9 4.28-27.22 7.1-39.97 8.4-12.76 1.35-26.94 2-42.55 2h-47.97c-15.6 0-29.8-.65-42.54-1.98-12.7-1.33-26-4.14-39.9-8.42-13.9-4.3-25.5-10-34.8-17.14-9.3-7.14-17-16.93-23.1-29.4-6.1-12.48-9.1-27.08-9.1-43.83 0-22.85 6.6-42.26 19.7-58.24 13.2-16 31-24 53.4-24 8.2 0 26.8 2 55.7 6 13.5 2.1 28.5 3.1 44.8 3.1s31.3-1.1 44.8-3.2c29.3-4 47.9-6 55.7-6 22.5 0 40.3 8 53.4 24 13.1 15.9 19.7 35.3 19.7 58.2 0 16.7-3 31.3-9.1 43.8z"/>
  <path d="M166.88 265.52c-5.8-6.47-12.7-9.7-20.7-9.7s-14.9 3.23-20.7 9.7c-5.8 6.47-9.9 13.7-12.28 21.7-2.38 8-3.57 15.8-3.57 23.4 0 7.62 1.2 15.42 3.57 23.43 2.37 8 6.47 15.22 12.27 21.68 5.8 6.48 12.7 9.72 20.7 9.72s14.9-3.25 20.7-9.72c5.8-6.46 9.9-13.7 12.28-21.68 2.38-8 3.57-15.8 3.57-23.42 0-7.6-1.2-15.42-3.57-23.42-2.38-7.9-6.47-15.2-12.28-21.6zm182.72 0c-5.8-6.47-12.7-9.7-20.7-9.7s-14.9 3.23-20.7 9.7c-5.8 6.47-9.9 13.7-12.27 21.7-2.38 8-3.57 15.8-3.57 23.4 0 7.62 1.2 15.42 3.57 23.43 2.38 8 6.47 15.22 12.27 21.68 5.8 6.48 12.7 9.72 20.7 9.72s14.9-3.25 20.7-9.72c5.8-6.46 9.9-13.7 12.28-21.68 2.38-8 3.57-15.8 3.57-23.42 0-7.6-1.2-15.42-3.57-23.42-2.38-7.9-6.48-15.2-12.28-21.6z"/>
</svg>

