<svg xmlns="http://www.w3.org/2000/svg" width="68" height="32">
  <g fill="none" fill-rule="evenodd">
    <path fill="#D76549" stroke="#44260E" d="M34.6 1.3C49.8 2.3 49 15.8 49 15.8c0 5.4-2.8 10.3-7.6 13-4.8 2.6-10.7 2.6-15.5 0-5-2.7-8-7.6-8-13 0 0 1-15.5 16-14.5z"/>
    <path stroke="#001721" d="M24.6 3.8c2-.4 6-.8 10.6-.5 4.7.4 9.7 2 9.7 2M18 14s7.8-1 15.3-.6C41 14 49 16 49 16m-29.7-5.4C28.7 7.6 49 12 49 12M21.6 7c2-.4 7-1 13.3-.6 6 .4 12 2 12 2"/>
    <path stroke="#001721" d="M33 13.2s.7 4.5.3 8.8c-.5 4.4-2 8.6-2 8.6M37 13.8c0 .6.8 3.7.4 8-.5 4.3-2.2 8.8-2.2 8.8M40.5 14c2 8.3-1.7 16-1.7 16m4.8-15.2c2.2 6.5-1.4 13.4-1.4 13.4m4.5-13c1 6-.8 9.5-1 10"/>
    <path stroke="#001721" d="M29.2 13.2s.7 1.3 1.7 2.5l2 2m-6-4.5s1 2.8 3 5l3 2.8m-9-7.8s2 4 4.4 7c2 2.8 4 4.2 4 4.2M20.4 14c0 2.7 5.5 12.7 11.7 14.2m-10-15c0 2 6 11.5 11 12.7M19 14c1 9 7 14 12 16"/>
    <path fill="#FFF" d="M.4 16L9 4.4l4 2 .3 1-6.7 9 6.7 9-.2.8-4 2-8-11V16zm67.3 1L59 28l-4-2v-1l6.5-9L55 7v-.7L59 4l8.6 11v2z"/>
  </g>
</svg>
