<svg xmlns="http://www.w3.org/2000/svg" width="97.2" height="97.2">
  <path d="M77.3 11.7C63 4.2 49 6 34.7 12.5c-2.2 1-3 2-3.8 3.6-2 4-4 8-4 10-4 5-7 11-8 18-2 3.6-4 8-5 13.7V59s-7-1-15-5.3c1.5 2.7 11.4 6 14.3 7 .3 18.7 12.2 25 12.2 25l-2.5-4c-6-11.4-5-20-5-20h.4c4.5 17 19.5 29 37.5 29h4c2.4.3 5 0 7.4-1 1-.2 2.3-1 3.5-2 14-7 20-15.5 24-28 1-3 2-6.6 2-10C99 34 91 19 77.6 12zM20.3 54c1-3 2.6-7.3 5.7-10.4.4 9 3 17 3 17l-7.8-1.2c-.4-1.7-.7-3.5-.8-5.3zm6-23c-.2 2.3 0 3.7 0 3.7-.7.5-2 1.5-3.5 3.2 1-3 2-5 3.5-7zM22 62l8 1.8s5.3 14.6 20.7 23.6c0 0 .3 0 .4.2C38 85.4 26 75.3 22 62zm51.3 22c-2.8 1-7 1.7-12.3.8-17.3-4.4-24.2-20.5-24.2-20.5 7.2.2 10 0 14.8-.7 7.5-1 15-3 21.8-6.3 2.3-1 2-3.7 1.8-5.6-.4-2.6-2-2.4-4-1-15.6 11-36 10.2-36 10.2s-3.6-6-5.2-21c8-7 15.8-12 32-10 0-2 .6-6-4-6-17.6-2-27.6 6-27.6 6 .5-3 1-5.8 2-7.7 6.6-5.5 15-9 24.6-9 20 0 36.4 16.5 36.4 37 0 14.3-8.2 27-20.2 33z"/>
</svg>
