<svg xmlns="http://www.w3.org/2000/svg" width="512" height="512">
  <path d="M512 97.2c-18.8 8.4-39 14-60.3 16.6 21.7-13 38.3-33.6 46.2-58.2-21 12-43 20.8-67 25.5-19-20-47-33-77-33-58 0-105 47-105 105 0 9 1 17 2.2 24-86.5-4-164.2-46-216-110-9 16-14.3 34-14.3 53 0 36.6 18.6 68.8 47 87.6-17.4-.5-33.6-5.2-47.7-13v1.2c0 51 36.2 93.4 84.2 103-8.8 2.4-18 3.7-27.6 3.7-6.4 0-13-.6-19.4-2 13.4 42 52.2 72.3 98 73-35.8 28.3-81 45-130.3 45-8 0-16.5-.4-25-1.4 46.8 30 102 47 161 47 193.5 0 299-160 299-299v-13.6c20-14.6 38-33 52-54.2z"/>
</svg>
